<?xml version="1.0" standalone="no"?><!-- Generator: Gravit.io --><svg xmlns="http://www.w3.org/2000/svg" xmlns:xlink="http://www.w3.org/1999/xlink" style="isolation:isolate" viewBox="-4.5 -1.5 128.639 121" width="128.639" height="121"><defs><clipPath id="_clipPath_2QEGMhtxvz0Quzw67no6Wud2e9MWdMMa"><rect x="-4.5" y="-1.5" width="128.639" height="121"/></clipPath></defs><g clip-path="url(#_clipPath_2QEGMhtxvz0Quzw67no6Wud2e9MWdMMa)"><rect x="-4.5" y="-1.5" width="128.639" height="121" style="fill:rgb(138,101,101)" fill-opacity="0"/><path d=" M 9.639 60 C 9.639 29.645 34.283 5 64.639 5 C 94.994 5 119.639 29.645 119.639 60 C 119.639 90.355 94.994 115 64.639 115 C 34.283 115 9.639 90.355 9.639 60 Z " fill="rgb(255,136,0)" vector-effect="non-scaling-stroke" stroke-width="3" stroke="rgb(255,255,255)" stroke-linejoin="miter" stroke-linecap="square" stroke-miterlimit="3"/><path d=" M 0 58 C 0 27.645 24.645 3 55 3 C 85.355 3 110 27.645 110 58 C 110 88.355 85.355 113 55 113 C 24.645 113 0 88.355 0 58 Z " fill="rgb(106,14,14)" vector-effect="non-scaling-stroke" stroke-width="3" stroke="rgb(255,255,255)" stroke-linejoin="miter" stroke-linecap="square" stroke-miterlimit="3"/><path d=" M 11.824 67.244 L 11.824 71.482 L 12.82 71.482 L 12.82 71.482 Q 14.217 71.482 14.91 70.93 L 14.91 70.93 L 14.91 70.93 Q 15.604 70.378 15.604 69.324 L 15.604 69.324 L 15.604 69.324 Q 15.604 68.259 15.022 67.751 L 15.022 67.751 L 15.022 67.751 Q 14.441 67.244 13.201 67.244 L 13.201 67.244 L 11.824 67.244 L 11.824 67.244 Z  M 18.66 69.216 L 18.66 69.216 L 18.66 69.216 Q 18.66 71.521 17.22 72.742 L 17.22 72.742 L 17.22 72.742 Q 15.779 73.962 13.123 73.962 L 13.123 73.962 L 11.824 73.962 L 11.824 79.041 L 8.797 79.041 L 8.797 64.763 L 13.357 64.763 L 13.357 64.763 Q 15.955 64.763 17.308 65.881 L 17.308 65.881 L 17.308 65.881 Q 18.66 67 18.66 69.216 Z  M 26.215 67.917 L 26.215 67.917 L 26.215 67.917 Q 26.82 67.917 27.221 68.005 L 27.221 68.005 L 26.996 70.798 L 26.996 70.798 Q 26.635 70.701 26.117 70.701 L 26.117 70.701 L 26.117 70.701 Q 24.691 70.701 23.896 71.433 L 23.896 71.433 L 23.896 71.433 Q 23.1 72.166 23.1 73.484 L 23.1 73.484 L 23.1 79.041 L 20.121 79.041 L 20.121 68.123 L 22.377 68.123 L 22.816 69.958 L 22.963 69.958 L 22.963 69.958 Q 23.471 69.041 24.335 68.479 L 24.335 68.479 L 24.335 68.479 Q 25.199 67.917 26.215 67.917 Z  M 30.576 73.562 L 30.576 73.562 L 30.576 73.562 Q 30.576 75.183 31.108 76.013 L 31.108 76.013 L 31.108 76.013 Q 31.641 76.843 32.842 76.843 L 32.842 76.843 L 32.842 76.843 Q 34.033 76.843 34.556 76.018 L 34.556 76.018 L 34.556 76.018 Q 35.078 75.193 35.078 73.562 L 35.078 73.562 L 35.078 73.562 Q 35.078 71.941 34.551 71.13 L 34.551 71.13 L 34.551 71.13 Q 34.023 70.32 32.822 70.32 L 32.822 70.32 L 32.822 70.32 Q 31.631 70.32 31.104 71.125 L 31.104 71.125 L 31.104 71.125 Q 30.576 71.931 30.576 73.562 Z  M 38.125 73.562 L 38.125 73.562 L 38.125 73.562 Q 38.125 76.228 36.719 77.732 L 36.719 77.732 L 36.719 77.732 Q 35.313 79.236 32.803 79.236 L 32.803 79.236 L 32.803 79.236 Q 31.23 79.236 30.029 78.547 L 30.029 78.547 L 30.029 78.547 Q 28.828 77.859 28.184 76.57 L 28.184 76.57 L 28.184 76.57 Q 27.539 75.281 27.539 73.562 L 27.539 73.562 L 27.539 73.562 Q 27.539 70.886 28.936 69.402 L 28.936 69.402 L 28.936 69.402 Q 30.332 67.917 32.861 67.917 L 32.861 67.917 L 32.861 67.917 Q 34.434 67.917 35.635 68.601 L 35.635 68.601 L 35.635 68.601 Q 36.836 69.285 37.48 70.564 L 37.48 70.564 L 37.48 70.564 Q 38.125 71.843 38.125 73.562 Z  M 45.582 79.236 L 45.582 79.236 L 45.582 79.236 Q 43.658 79.236 42.564 77.839 L 42.564 77.839 L 42.408 77.839 L 42.408 77.839 Q 42.564 79.207 42.564 79.421 L 42.564 79.421 L 42.564 83.845 L 39.586 83.845 L 39.586 68.123 L 42.008 68.123 L 42.428 69.539 L 42.564 69.539 L 42.564 69.539 Q 43.609 67.917 45.66 67.917 L 45.66 67.917 L 45.66 67.917 Q 47.594 67.917 48.688 69.412 L 48.688 69.412 L 48.688 69.412 Q 49.781 70.906 49.781 73.562 L 49.781 73.562 L 49.781 73.562 Q 49.781 75.31 49.269 76.599 L 49.269 76.599 L 49.269 76.599 Q 48.756 77.888 47.809 78.562 L 47.809 78.562 L 47.809 78.562 Q 46.861 79.236 45.582 79.236 Z  M 44.703 70.3 L 44.703 70.3 L 44.703 70.3 Q 43.6 70.3 43.092 70.979 L 43.092 70.979 L 43.092 70.979 Q 42.584 71.658 42.564 73.22 L 42.564 73.22 L 42.564 73.542 L 42.564 73.542 Q 42.564 75.3 43.087 76.062 L 43.087 76.062 L 43.087 76.062 Q 43.609 76.824 44.742 76.824 L 44.742 76.824 L 44.742 76.824 Q 46.744 76.824 46.744 73.523 L 46.744 73.523 L 46.744 73.523 Q 46.744 71.912 46.251 71.106 L 46.251 71.106 L 46.251 71.106 Q 45.758 70.3 44.703 70.3 Z  M 55.764 70.037 L 55.764 70.037 L 55.764 70.037 Q 54.816 70.037 54.279 70.637 L 54.279 70.637 L 54.279 70.637 Q 53.742 71.238 53.664 72.341 L 53.664 72.341 L 57.844 72.341 L 57.844 72.341 Q 57.824 71.238 57.268 70.637 L 57.268 70.637 L 57.268 70.637 Q 56.711 70.037 55.764 70.037 Z  M 56.184 79.236 L 56.184 79.236 L 56.184 79.236 Q 53.547 79.236 52.063 77.781 L 52.063 77.781 L 52.063 77.781 Q 50.578 76.326 50.578 73.66 L 50.578 73.66 L 50.578 73.66 Q 50.578 70.916 51.95 69.417 L 51.95 69.417 L 51.95 69.417 Q 53.322 67.917 55.744 67.917 L 55.744 67.917 L 55.744 67.917 Q 58.059 67.917 59.348 69.236 L 59.348 69.236 L 59.348 69.236 Q 60.637 70.554 60.637 72.878 L 60.637 72.878 L 60.637 74.324 L 53.596 74.324 L 53.596 74.324 Q 53.645 75.593 54.348 76.306 L 54.348 76.306 L 54.348 76.306 Q 55.051 77.019 56.32 77.019 L 56.32 77.019 L 56.32 77.019 Q 57.307 77.019 58.186 76.814 L 58.186 76.814 L 58.186 76.814 Q 59.064 76.609 60.021 76.16 L 60.021 76.16 L 60.021 78.464 L 60.021 78.464 Q 59.24 78.855 58.352 79.045 L 58.352 79.045 L 58.352 79.045 Q 57.463 79.236 56.184 79.236 Z  M 68.152 67.917 L 68.152 67.917 L 68.152 67.917 Q 68.758 67.917 69.158 68.005 L 69.158 68.005 L 68.934 70.798 L 68.934 70.798 Q 68.572 70.701 68.055 70.701 L 68.055 70.701 L 68.055 70.701 Q 66.629 70.701 65.833 71.433 L 65.833 71.433 L 65.833 71.433 Q 65.037 72.166 65.037 73.484 L 65.037 73.484 L 65.037 79.041 L 62.059 79.041 L 62.059 68.123 L 64.314 68.123 L 64.754 69.958 L 64.9 69.958 L 64.9 69.958 Q 65.408 69.041 66.272 68.479 L 66.272 68.479 L 66.272 68.479 Q 67.137 67.917 68.152 67.917 Z  M 74.74 76.863 L 74.74 76.863 L 74.74 76.863 Q 75.521 76.863 76.615 76.521 L 76.615 76.521 L 76.615 78.738 L 76.615 78.738 Q 75.502 79.236 73.881 79.236 L 73.881 79.236 L 73.881 79.236 Q 72.094 79.236 71.278 78.333 L 71.278 78.333 L 71.278 78.333 Q 70.463 77.429 70.463 75.623 L 70.463 75.623 L 70.463 70.359 L 69.037 70.359 L 69.037 69.099 L 70.678 68.103 L 71.537 65.798 L 73.441 65.798 L 73.441 68.123 L 76.498 68.123 L 76.498 70.359 L 73.441 70.359 L 73.441 75.623 L 73.441 75.623 Q 73.441 76.257 73.798 76.56 L 73.798 76.56 L 73.798 76.56 Q 74.154 76.863 74.74 76.863 Z  M 77.695 65.3 L 77.695 65.3 L 77.695 65.3 Q 77.695 63.845 79.316 63.845 L 79.316 63.845 L 79.316 63.845 Q 80.938 63.845 80.938 65.3 L 80.938 65.3 L 80.938 65.3 Q 80.938 65.994 80.532 66.379 L 80.532 66.379 L 80.532 66.379 Q 80.127 66.765 79.316 66.765 L 79.316 66.765 L 79.316 66.765 Q 77.695 66.765 77.695 65.3 Z  M 80.801 68.123 L 80.801 79.041 L 77.822 79.041 L 77.822 68.123 L 80.801 68.123 L 80.801 68.123 Z  M 87.447 70.037 L 87.447 70.037 L 87.447 70.037 Q 86.5 70.037 85.963 70.637 L 85.963 70.637 L 85.963 70.637 Q 85.426 71.238 85.348 72.341 L 85.348 72.341 L 89.527 72.341 L 89.527 72.341 Q 89.508 71.238 88.951 70.637 L 88.951 70.637 L 88.951 70.637 Q 88.395 70.037 87.447 70.037 Z  M 87.867 79.236 L 87.867 79.236 L 87.867 79.236 Q 85.23 79.236 83.746 77.781 L 83.746 77.781 L 83.746 77.781 Q 82.262 76.326 82.262 73.66 L 82.262 73.66 L 82.262 73.66 Q 82.262 70.916 83.634 69.417 L 83.634 69.417 L 83.634 69.417 Q 85.006 67.917 87.428 67.917 L 87.428 67.917 L 87.428 67.917 Q 89.742 67.917 91.031 69.236 L 91.031 69.236 L 91.031 69.236 Q 92.32 70.554 92.32 72.878 L 92.32 72.878 L 92.32 74.324 L 85.279 74.324 L 85.279 74.324 Q 85.328 75.593 86.031 76.306 L 86.031 76.306 L 86.031 76.306 Q 86.734 77.019 88.004 77.019 L 88.004 77.019 L 88.004 77.019 Q 88.99 77.019 89.869 76.814 L 89.869 76.814 L 89.869 76.814 Q 90.748 76.609 91.705 76.16 L 91.705 76.16 L 91.705 78.464 L 91.705 78.464 Q 90.924 78.855 90.035 79.045 L 90.035 79.045 L 90.035 79.045 Q 89.146 79.236 87.867 79.236 Z  M 101.359 75.798 L 101.359 75.798 L 101.359 75.798 Q 101.359 77.478 100.192 78.357 L 100.192 78.357 L 100.192 78.357 Q 99.025 79.236 96.701 79.236 L 96.701 79.236 L 96.701 79.236 Q 95.51 79.236 94.67 79.075 L 94.67 79.075 L 94.67 79.075 Q 93.83 78.914 93.098 78.601 L 93.098 78.601 L 93.098 76.14 L 93.098 76.14 Q 93.928 76.531 94.968 76.794 L 94.968 76.794 L 94.968 76.794 Q 96.008 77.058 96.799 77.058 L 96.799 77.058 L 96.799 77.058 Q 98.42 77.058 98.42 76.121 L 98.42 76.121 L 98.42 76.121 Q 98.42 75.769 98.205 75.549 L 98.205 75.549 L 98.205 75.549 Q 97.99 75.33 97.463 75.051 L 97.463 75.051 L 97.463 75.051 Q 96.936 74.773 96.057 74.402 L 96.057 74.402 L 96.057 74.402 Q 94.797 73.875 94.206 73.425 L 94.206 73.425 L 94.206 73.425 Q 93.615 72.976 93.347 72.395 L 93.347 72.395 L 93.347 72.395 Q 93.078 71.814 93.078 70.964 L 93.078 70.964 L 93.078 70.964 Q 93.078 69.509 94.206 68.713 L 94.206 68.713 L 94.206 68.713 Q 95.334 67.917 97.404 67.917 L 97.404 67.917 L 97.404 67.917 Q 99.377 67.917 101.242 68.777 L 101.242 68.777 L 100.344 70.925 L 100.344 70.925 Q 99.523 70.574 98.811 70.349 L 98.811 70.349 L 98.811 70.349 Q 98.098 70.125 97.355 70.125 L 97.355 70.125 L 97.355 70.125 Q 96.037 70.125 96.037 70.837 L 96.037 70.837 L 96.037 70.837 Q 96.037 71.238 96.462 71.531 L 96.462 71.531 L 96.462 71.531 Q 96.887 71.824 98.322 72.4 L 98.322 72.4 L 98.322 72.4 Q 99.602 72.917 100.197 73.367 L 100.197 73.367 L 100.197 73.367 Q 100.793 73.816 101.076 74.402 L 101.076 74.402 L 101.076 74.402 Q 101.359 74.988 101.359 75.798 Z  M 40.904 53.115 L 40.904 50.596 L 46.568 50.596 L 46.568 57.998 L 46.568 57.998 Q 45.191 58.447 43.976 58.628 L 43.976 58.628 L 43.976 58.628 Q 42.76 58.809 41.49 58.809 L 41.49 58.809 L 41.49 58.809 Q 38.258 58.809 36.554 56.909 L 36.554 56.909 L 36.554 56.909 Q 34.85 55.01 34.85 51.455 L 34.85 51.455 L 34.85 51.455 Q 34.85 47.998 36.827 46.064 L 36.827 46.064 L 36.827 46.064 Q 38.805 44.131 42.311 44.131 L 42.311 44.131 L 42.311 44.131 Q 44.508 44.131 46.549 45.01 L 46.549 45.01 L 45.543 47.432 L 45.543 47.432 Q 43.98 46.65 42.291 46.65 L 42.291 46.65 L 42.291 46.65 Q 40.328 46.65 39.146 47.969 L 39.146 47.969 L 39.146 47.969 Q 37.965 49.287 37.965 51.514 L 37.965 51.514 L 37.965 51.514 Q 37.965 53.838 38.917 55.063 L 38.917 55.063 L 38.917 55.063 Q 39.869 56.289 41.686 56.289 L 41.686 56.289 L 41.686 56.289 Q 42.633 56.289 43.609 56.094 L 43.609 56.094 L 43.609 53.115 L 40.904 53.115 L 40.904 53.115 Z  M 51.105 53.135 L 51.105 53.135 L 51.105 53.135 Q 51.105 54.756 51.638 55.586 L 51.638 55.586 L 51.638 55.586 Q 52.17 56.416 53.371 56.416 L 53.371 56.416 L 53.371 56.416 Q 54.563 56.416 55.085 55.591 L 55.085 55.591 L 55.085 55.591 Q 55.607 54.766 55.607 53.135 L 55.607 53.135 L 55.607 53.135 Q 55.607 51.514 55.08 50.703 L 55.08 50.703 L 55.08 50.703 Q 54.553 49.893 53.352 49.893 L 53.352 49.893 L 53.352 49.893 Q 52.16 49.893 51.633 50.698 L 51.633 50.698 L 51.633 50.698 Q 51.105 51.504 51.105 53.135 Z  M 58.654 53.135 L 58.654 53.135 L 58.654 53.135 Q 58.654 55.801 57.248 57.305 L 57.248 57.305 L 57.248 57.305 Q 55.842 58.809 53.332 58.809 L 53.332 58.809 L 53.332 58.809 Q 51.76 58.809 50.559 58.12 L 50.559 58.12 L 50.559 58.12 Q 49.357 57.432 48.713 56.143 L 48.713 56.143 L 48.713 56.143 Q 48.068 54.854 48.068 53.135 L 48.068 53.135 L 48.068 53.135 Q 48.068 50.459 49.465 48.975 L 49.465 48.975 L 49.465 48.975 Q 50.861 47.49 53.391 47.49 L 53.391 47.49 L 53.391 47.49 Q 54.963 47.49 56.164 48.174 L 56.164 48.174 L 56.164 48.174 Q 57.365 48.857 58.01 50.137 L 58.01 50.137 L 58.01 50.137 Q 58.654 51.416 58.654 53.135 Z  M 63.094 43.418 L 63.094 58.613 L 60.115 58.613 L 60.115 43.418 L 63.094 43.418 L 63.094 43.418 Z  M 68.676 58.809 L 68.676 58.809 L 68.676 58.809 Q 66.752 58.809 65.653 57.314 L 65.653 57.314 L 65.653 57.314 Q 64.555 55.82 64.555 53.174 L 64.555 53.174 L 64.555 53.174 Q 64.555 50.488 65.673 48.989 L 65.673 48.989 L 65.673 48.989 Q 66.791 47.49 68.754 47.49 L 68.754 47.49 L 68.754 47.49 Q 70.814 47.49 71.898 49.092 L 71.898 49.092 L 71.996 49.092 L 71.996 49.092 Q 71.771 47.871 71.771 46.914 L 71.771 46.914 L 71.771 43.418 L 74.76 43.418 L 74.76 58.613 L 72.475 58.613 L 71.898 57.197 L 71.771 57.197 L 71.771 57.197 Q 70.756 58.809 68.676 58.809 Z  M 69.721 56.436 L 69.721 56.436 L 69.721 56.436 Q 70.863 56.436 71.396 55.771 L 71.396 55.771 L 71.396 55.771 Q 71.928 55.107 71.977 53.516 L 71.977 53.516 L 71.977 53.193 L 71.977 53.193 Q 71.977 51.436 71.435 50.674 L 71.435 50.674 L 71.435 50.674 Q 70.893 49.912 69.672 49.912 L 69.672 49.912 L 69.672 49.912 Q 68.676 49.912 68.124 50.757 L 68.124 50.757 L 68.124 50.757 Q 67.572 51.602 67.572 53.213 L 67.572 53.213 L 67.572 53.213 Q 67.572 54.824 68.129 55.63 L 68.129 55.63 L 68.129 55.63 Q 68.686 56.436 69.721 56.436 Z  M 37.618 32.542 L 37.618 38.186 L 34.64 38.186 L 34.64 23.909 L 42.823 23.909 L 42.823 26.389 L 37.618 26.389 L 37.618 30.071 L 42.462 30.071 L 42.462 32.542 L 37.618 32.542 L 37.618 32.542 Z  M 47.155 38.108 L 42.819 27.268 L 46.081 27.268 L 48.142 33.411 L 48.142 33.411 Q 48.405 34.211 48.503 35.305 L 48.503 35.305 L 48.562 35.305 L 48.562 35.305 Q 48.669 34.299 48.981 33.411 L 48.981 33.411 L 51.003 27.268 L 54.196 27.268 L 49.577 39.583 L 49.577 39.583 Q 48.942 41.292 47.766 42.141 L 47.766 42.141 L 47.766 42.141 Q 46.589 42.991 45.017 42.991 L 45.017 42.991 L 45.017 42.991 Q 44.245 42.991 43.503 42.825 L 43.503 42.825 L 43.503 40.461 L 43.503 40.461 Q 44.04 40.588 44.675 40.588 L 44.675 40.588 L 44.675 40.588 Q 45.466 40.588 46.057 40.105 L 46.057 40.105 L 46.057 40.105 Q 46.647 39.622 46.979 38.645 L 46.979 38.645 L 47.155 38.108 L 47.155 38.108 Z  M 64.837 31.067 L 64.837 38.186 L 61.858 38.186 L 61.858 31.809 L 61.858 31.809 Q 61.858 30.627 61.438 30.037 L 61.438 30.037 L 61.438 30.037 Q 61.019 29.446 60.101 29.446 L 60.101 29.446 L 60.101 29.446 Q 58.851 29.446 58.294 30.281 L 58.294 30.281 L 58.294 30.281 Q 57.737 31.116 57.737 33.049 L 57.737 33.049 L 57.737 38.186 L 54.759 38.186 L 54.759 27.268 L 57.034 27.268 L 57.435 28.665 L 57.601 28.665 L 57.601 28.665 Q 58.099 27.874 58.973 27.468 L 58.973 27.468 L 58.973 27.468 Q 59.847 27.063 60.96 27.063 L 60.96 27.063 L 60.96 27.063 Q 62.864 27.063 63.851 28.093 L 63.851 28.093 L 63.851 28.093 Q 64.837 29.124 64.837 31.067 L 64.837 31.067 L 64.837 31.067 Z  M 71.425 29.182 L 71.425 29.182 L 71.425 29.182 Q 70.478 29.182 69.94 29.783 L 69.94 29.783 L 69.94 29.783 Q 69.403 30.383 69.325 31.487 L 69.325 31.487 L 73.505 31.487 L 73.505 31.487 Q 73.485 30.383 72.929 29.783 L 72.929 29.783 L 72.929 29.783 Q 72.372 29.182 71.425 29.182 Z  M 71.845 38.381 L 71.845 38.381 L 71.845 38.381 Q 69.208 38.381 67.724 36.926 L 67.724 36.926 L 67.724 36.926 Q 66.239 35.471 66.239 32.805 L 66.239 32.805 L 66.239 32.805 Q 66.239 30.061 67.611 28.562 L 67.611 28.562 L 67.611 28.562 Q 68.983 27.063 71.405 27.063 L 71.405 27.063 L 71.405 27.063 Q 73.72 27.063 75.009 28.381 L 75.009 28.381 L 75.009 28.381 Q 76.298 29.7 76.298 32.024 L 76.298 32.024 L 76.298 33.469 L 69.257 33.469 L 69.257 33.469 Q 69.306 34.739 70.009 35.452 L 70.009 35.452 L 70.009 35.452 Q 70.712 36.165 71.981 36.165 L 71.981 36.165 L 71.981 36.165 Q 72.968 36.165 73.847 35.959 L 73.847 35.959 L 73.847 35.959 Q 74.726 35.754 75.683 35.305 L 75.683 35.305 L 75.683 37.61 L 75.683 37.61 Q 74.901 38 74.013 38.191 L 74.013 38.191 L 74.013 38.191 Q 73.124 38.381 71.845 38.381 Z " fill="rgb(255,136,0)"/></g></svg>